<?xml version="1.0" encoding="UTF-8" standalone="no"?><!DOCTYPE svg PUBLIC "-//W3C//DTD SVG 1.1//EN" "http://www.w3.org/Graphics/SVG/1.1/DTD/svg11.dtd"><svg width="100%" height="100%" viewBox="0 0 705 355" version="1.1" xmlns="http://www.w3.org/2000/svg" xmlns:xlink="http://www.w3.org/1999/xlink" xml:space="preserve" xmlns:serif="http://www.serif.com/" style="fill-rule:evenodd;clip-rule:evenodd;stroke-linejoin:round;stroke-miterlimit:2;"><g transform="matrix(1.47823,0,0,1.54385,-301.356,-353.541)"><g transform="matrix(295.432,0,0,295.432,195,454.001)"><path d="M0.274,-0l-0.224,-0l-0,-0.745l0.421,-0l0,0.187l-0.197,-0l-0,0.135l0.143,0l-0,0.187l-0.143,0l-0,0.236Z" style="fill:#09064e;fill-rule:nonzero;"/></g><path d="M281.564,389.724l-0,69.674l-77.487,0l-0,-230.926l135.765,-0l0,66.044l-58.278,0l-0,29.163l42.266,0l0,66.045l-42.266,-0Zm-5.638,64.277l-66.212,-0l-0,-220.132l124.491,0l-0,55.25l-58.279,-0l0,39.958l42.267,-0l-0,55.249l-42.267,0l0,69.675Z" style="fill:#fff;"/></g><g transform="matrix(1.42062,0,0,1.48416,-342.335,-326.405)"><g transform="matrix(307.314,0,0,307.314,361,454.001)"><rect x="0.051" y="-0.745" width="0.224" height="0.745" style="fill:#272377;fill-rule:nonzero;"/></g><path d="M451.347,459.616l0,-240.215l-80.607,0l-0,240.215l80.607,-0Zm-5.866,-5.615l-68.875,-0l-0,-228.985l68.875,0l0,228.985Z" style="fill:#fff;"/></g><g transform="matrix(1.42062,0,0,1.48416,-436.786,-326.405)"><g transform="matrix(307.314,0,0,307.314,486,454.001)"><path d="M0.258,-0.127l-0.029,0.127l-0.227,-0l0.181,-0.745l0.32,-0l0.172,0.745l-0.225,-0l-0.029,-0.127l-0.163,0Zm0.04,-0.175l0.083,0l-0.041,-0.182l-0.042,0.182Z" style="fill:#3b35a7;fill-rule:nonzero;"/></g><path d="M569.958,420.601l-8.853,39.015l-81.893,-0l58.401,-240.215l107.656,0l55.41,240.215l-81.039,-0l-9.004,-39.015l-40.678,0Zm-4.729,-5.615l-8.853,39.015l-69.776,-0l55.671,-228.985l98.286,0l52.82,228.985l-69.026,-0l-9.003,-39.015l-50.119,0Zm12.305,-53.72l25.509,0l-12.604,-55.97l-12.905,55.97Zm7.302,-5.614l10.942,-0l-5.407,-24.01l-5.535,24.01Z" style="fill:#fff;"/></g><g transform="matrix(1.42062,0,0,1.48416,-520.412,-326.33)"><g transform="matrix(307.314,0,0,307.314,712,454.001)"><path d="M0.274,-0.187l0.196,-0l0,0.187l-0.42,-0l-0,-0.745l0.42,-0l0,0.187l-0.196,-0l-0,0.092l0.137,0l0,0.187l-0.137,0l-0,0.092Z" style="fill:#6059e6;fill-rule:nonzero;"/></g><path d="M802.047,390.915l60.322,-0l0,68.701l-140.929,-0l-0,-240.215l140.929,0l0,68.701l-60.322,0l0,17.131l42.166,-0l-0,68.701l-42.166,-0l0,16.981Zm-5.866,5.614l60.322,0l0,57.472l-129.197,-0l-0,-228.985l129.197,0l0,57.471l-60.322,0l0,28.361l42.166,-0l-0,57.471l-42.166,0l0,28.21Z" style="fill:#fff;"/></g></svg>